HIERARCHY
ROOT Hips
{
	OFFSET 0.000000 88.474243 0.000000
	CHANNELS 6 Xposition Yposition Zposition Zrotation Yrotation Xrotation 
	JOINT Hips_Spine
	{
		OFFSET 0.000000 0.000000 0.000000
		CHANNELS 3 Zrotation Yrotation Xrotation
		JOINT Spine
		{
			OFFSET 0.005100 8.711998 -0.691000
			CHANNELS 3 Zrotation Yrotation Xrotation
			JOINT Spine1
			{
				OFFSET -0.009200 8.660301 -1.275000
				CHANNELS 3 Zrotation Yrotation Xrotation
				JOINT Spine2
				{
					OFFSET 0.006300 9.852501 -1.857000
					CHANNELS 3 Zrotation Yrotation Xrotation
					JOINT Spine2_Neck
					{
						OFFSET 0.000000 0.000000 0.000000
						CHANNELS 3 Zrotation Yrotation Xrotation
						JOINT Neck
						{
							OFFSET 0.016300 11.420799 -0.263300
							CHANNELS 3 Zrotation Yrotation Xrotation
							End Site #name: Head
							{
								OFFSET -0.019200 9.262405 2.362500
							}
						}
					}
					JOINT Spine2_LeftShoulder
					{
						OFFSET 0.000000 0.000000 0.000000
						CHANNELS 3 Zrotation Yrotation Xrotation
						JOINT LeftShoulder
						{
							OFFSET 5.616900 6.732201 -0.345700
							CHANNELS 3 Zrotation Yrotation Xrotation
							JOINT LeftArm
							{
								OFFSET 10.664888 -0.183372 -2.440700
								CHANNELS 3 Zrotation Yrotation Xrotation
								JOINT LeftForeArm
								{
									OFFSET 27.459126 0.000000 0.000000
									CHANNELS 3 Zrotation Yrotation Xrotation
									End Site #name: LeftHand
									{
										OFFSET 21.306858 0.000000 0.000000
									}
								}
							}
						}
					}
					JOINT Spine2_RightShoulder
					{
						OFFSET 0.000000 0.000000 0.000000
						CHANNELS 3 Zrotation Yrotation Xrotation
						JOINT RightShoulder
						{
							OFFSET -5.580300 6.737503 -0.344400
							CHANNELS 3 Zrotation Yrotation Xrotation
							JOINT RightArm
							{
								OFFSET -10.679335 -0.188484 -2.383900
								CHANNELS 3 Zrotation Yrotation Xrotation
								JOINT RightForeArm
								{
									OFFSET -27.503529 0.000000 0.000000
									CHANNELS 3 Zrotation Yrotation Xrotation
									End Site #name: RightHand
									{
										OFFSET -21.306808 0.000000 0.000000
									}
								}
							}
						}
					}
				}
			}
		}
	}
	JOINT Hips_LeftUpLeg
	{
		OFFSET 0.000000 0.000000 0.000000
		CHANNELS 3 Zrotation Yrotation Xrotation
		JOINT LeftUpLeg
		{
			OFFSET 6.857700 -6.739601 0.312100
			CHANNELS 3 Zrotation Yrotation Xrotation
			JOINT LeftLeg
			{
				OFFSET -0.367590 -34.731552 -4.572400
				CHANNELS 3 Zrotation Yrotation Xrotation
				End Site #name: LeftFoot
				{
					OFFSET 0.367590 -34.656704 -6.067400
				}
			}
		}
	}
	JOINT Hips_RightUpLeg
	{
		OFFSET 0.000000 0.000000 0.000000
		CHANNELS 3 Zrotation Yrotation Xrotation
		JOINT RightUpLeg
		{
			OFFSET -6.876100 -6.733299 0.301000
			CHANNELS 3 Zrotation Yrotation Xrotation
			JOINT RightLeg
			{
				OFFSET 0.347353 -34.795158 -4.515900
				CHANNELS 3 Zrotation Yrotation Xrotation
				End Site #name: RightFoot
				{
					OFFSET -0.347353 -34.589367 -6.070300
				}
			}
		}
	}
}
MOTION
Frames: 15
Frame Time: 0.041667
0.149902 0.042842 0.016983 -0.162358 20.307436 -6.560930 -0.000000 0.000000 0.000000 -0.982930 -0.720817 0.835830 -0.298963 -1.003717 0.229366 0.000000 0.000000 0.000000 -0.238480 -0.718467 -0.798096 3.752156 0.344889 -5.282756 0.174274 -1.503977 -1.579943 -16.564373 -8.419549 1.952802 -46.154243 -1.040884 14.392238 0.628296 -26.136031 4.281910 -0.488985 -0.710113 0.488307 14.006181 10.632197 4.049346 58.163176 -4.719190 -3.590622 -0.711525 42.884302 0.761428 0.000000 0.000000 0.000000 -7.082652 15.182939 -4.526144 -0.040843 0.192092 21.889798 0.000000 0.000000 0.000000 -4.271728 9.019898 -8.548764 4.787321 -2.561029 -1.579223 
0.654802 -0.015357 0.189420 1.226729 22.504977 -7.136645 -0.000000 0.000000 0.000000 -3.911683 -1.378471 0.247609 0.167625 -0.887735 -0.323771 0.000000 0.000000 0.000000 -0.266030 -0.766213 -1.389267 5.125537 -0.347008 -4.599609 -0.465460 -1.102372 -2.090046 -22.025639 -4.710123 0.287306 -41.328941 0.740938 6.825223 -0.449282 -20.669974 1.714800 -0.376301 -0.876760 -0.163739 15.093922 7.764294 1.644405 60.495191 -0.971840 -4.565191 -0.513387 39.730267 -0.730299 0.000000 0.000000 -0.000000 -8.980694 13.766665 -2.935024 -0.494678 2.444814 21.339000 0.000000 0.000000 0.000000 -7.432759 9.624356 -8.163624 4.866576 -3.747647 -0.307702 
0.977142 -0.047448 0.258264 2.323521 22.464707 -7.132419 -0.000000 0.000000 0.000000 -4.479626 -2.140590 0.189848 0.059741 -0.646717 -0.572976 0.000000 0.000000 0.000000 0.196268 -1.066355 -1.635193 4.735627 -0.328171 -5.788618 -0.574178 -1.166341 -2.293343 -26.085204 -3.914869 0.130942 -41.134492 6.492484 0.794108 -1.014313 -21.677080 2.006731 -0.258302 -0.879292 -0.309844 14.364778 6.773992 1.781494 60.094311 1.723721 -4.814091 -0.251606 34.450471 -0.624277 0.000000 0.000000 -0.000000 -10.484633 13.059648 -1.965515 -1.100787 2.849684 20.459076 0.000000 0.000000 0.000000 -9.136117 9.340609 -10.298875 4.322381 -5.566877 4.156654 
1.286829 -0.094698 0.252853 2.915482 21.549749 -6.592439 -0.000000 0.000000 -0.000000 -4.783205 -1.971032 0.731998 0.057569 -0.568129 -0.793471 0.000000 0.000000 0.000000 0.425770 -1.170258 -1.590695 4.833104 -1.048410 -5.311924 -0.487867 -1.200820 -2.292299 -28.342259 -3.578112 0.876190 -38.252055 6.484023 2.635964 -0.577053 -21.401283 4.082508 -0.152916 -0.841824 -0.295177 13.235872 6.558308 1.830869 60.082791 4.391066 -5.238155 -0.098266 35.489186 -0.559350 0.000000 0.000000 -0.000000 -11.527888 12.869773 -2.198664 -1.298851 3.284891 20.194710 0.000000 0.000000 0.000000 -10.267495 8.102061 -12.863336 3.332574 -6.121555 9.487343 
1.641505 -0.115914 0.220309 3.214595 21.266772 -5.956266 -0.000000 0.000000 -0.000000 -5.187424 -1.418129 0.743790 -0.057989 -0.483788 -0.799225 0.000000 0.000000 0.000000 0.304529 -1.153891 -1.577148 4.876682 -1.594996 -4.627387 -0.515017 -1.185842 -2.124234 -30.859890 -2.788323 1.506078 -34.913063 5.408024 4.056104 0.014388 -17.849615 6.038371 -0.178725 -0.761675 -0.161641 11.852739 6.665707 1.766814 61.034210 5.568671 -5.986760 -0.028885 37.259414 -0.607086 0.000000 0.000000 -0.000000 -12.313525 12.816110 -2.616779 -1.164399 3.540581 20.023295 0.000000 0.000000 0.000000 -11.403799 6.642082 -14.639773 2.803782 -5.789118 13.279925 
2.024060 -0.121976 0.167371 3.311510 21.378789 -5.611806 -0.000000 0.000000 -0.000000 -5.514759 -1.063056 0.437510 -0.240489 -0.408200 -0.745822 0.000000 0.000000 0.000000 0.052299 -1.122010 -1.487478 4.733320 -1.898587 -3.748234 -0.633575 -1.144984 -1.958662 -32.790454 -1.703771 1.666146 -33.230490 4.723285 5.510270 0.422079 -13.691953 7.245261 -0.308244 -0.693620 -0.071939 10.597430 6.775807 1.680415 62.038647 5.481681 -6.601150 0.092370 37.105606 -0.626420 0.000000 0.000000 -0.000000 -12.950209 12.876359 -2.878187 -1.008432 3.725013 19.845027 0.000000 0.000000 0.000000 -12.361763 5.581977 -15.360943 2.611950 -5.413526 15.231360 
2.417480 -0.117128 0.115043 3.259806 21.628812 -5.468290 -0.000000 0.000000 -0.000000 -5.662400 -0.772208 0.017965 -0.461637 -0.301524 -0.723332 0.000000 0.000000 0.000000 -0.231960 -1.081688 -1.435849 4.513802 -2.228677 -2.861650 -0.822831 -1.094128 -1.906574 -34.262242 -0.815319 1.724967 -32.190876 4.415610 6.480678 0.663918 -9.729596 7.760859 -0.509909 -0.624821 -0.050325 9.767064 6.852864 1.606484 63.218646 4.812647 -6.957470 0.223467 36.602753 -0.630546 0.000000 0.000000 -0.000000 -13.472459 12.876491 -3.103161 -0.866906 3.829735 19.821424 0.000000 0.000000 0.000000 -13.103850 4.700682 -15.486285 2.681739 -4.943230 16.065541 
2.796820 -0.104225 0.066380 3.104706 21.965304 -5.387081 -0.000000 0.000000 -0.000000 -5.785739 -0.536426 -0.436245 -0.664333 -0.187088 -0.745693 0.000000 0.000000 0.000000 -0.459977 -1.026932 -1.446984 4.172561 -2.403715 -2.128102 -1.008667 -1.036335 -1.924149 -35.425419 -0.208831 1.679265 -31.548067 4.071209 6.923814 0.722375 -6.795071 7.605947 -0.722341 -0.536391 -0.060172 9.298687 6.882883 1.547850 65.117151 4.253429 -6.981743 0.341029 35.533327 -0.615782 0.000000 0.000000 -0.000000 -13.844813 12.738466 -3.420310 -0.757646 3.888631 19.948327 0.000000 0.000000 0.000000 -13.609245 3.814718 -15.272454 2.638448 -4.602023 16.200631 
3.136761 -0.083240 0.025936 2.858350 22.351346 -5.286886 -0.000000 0.000000 -0.000000 -5.954978 -0.310425 -0.703875 -0.819246 -0.054741 -0.832610 0.000000 0.000000 0.000000 -0.649794 -0.950230 -1.491416 3.932910 -2.294064 -1.723295 -1.158330 -0.963345 -1.990895 -36.138882 0.223215 1.631569 -31.112004 3.894369 6.991340 0.603738 -5.479296 7.128085 -0.988536 -0.393707 -0.071639 9.066823 6.877207 1.509875 66.911571 3.839480 -6.772687 0.433153 33.732022 -0.571073 0.000000 0.000000 -0.000000 -14.051487 12.562016 -3.844852 -0.614744 3.909608 20.257672 0.000000 0.000000 0.000000 -13.847682 2.777137 -14.857182 2.467944 -4.441144 15.740020 
3.431899 -0.056354 -0.008991 2.584470 22.631280 -5.164754 -0.000000 0.000000 -0.000000 -6.211362 -0.057869 -0.856409 -0.947221 0.101168 -0.996560 0.000000 0.000000 0.000000 -0.841480 -0.861591 -1.607426 3.833719 -2.129377 -1.543681 -1.293931 -0.881192 -2.090381 -36.436718 0.520026 1.618445 -31.203253 3.861908 6.933410 0.450202 -5.200582 6.637454 -1.244075 -0.233888 -0.122323 8.984868 6.857991 1.463498 67.978163 3.653308 -6.417357 0.513361 31.970716 -0.533172 0.000000 0.000000 -0.000000 -14.088853 12.389558 -4.312674 -0.415008 3.980126 20.632457 0.000000 0.000000 0.000000 -13.859920 1.539686 -14.386335 2.188594 -4.403219 14.957473 
3.676194 -0.024917 -0.041366 2.314752 22.783734 -5.049610 -0.000000 0.000000 -0.000000 -6.625187 0.186923 -0.793145 -1.030157 0.231612 -1.176383 0.000000 0.000000 0.000000 -1.029282 -0.759411 -1.745148 3.860253 -1.918939 -1.508787 -1.431186 -0.730220 -2.239306 -36.402608 0.729900 1.634196 -31.561200 3.788080 6.776563 0.332124 -5.637523 6.314999 -1.498922 -0.070624 -0.205372 8.974974 6.822059 1.422494 68.413595 3.589106 -6.088145 0.564704 30.636628 -0.508742 0.000000 0.000000 -0.000000 -14.013871 12.243467 -4.773243 -0.214104 4.060319 21.012653 0.000000 0.000000 0.000000 -13.724997 0.321397 -13.949589 1.855736 -4.458226 14.043115 
3.862818 0.010650 -0.072991 2.076686 22.681337 -4.944989 -0.000000 0.000000 -0.000000 -7.066791 0.367666 -0.613558 -1.104784 0.327142 -1.325280 0.000000 0.000000 0.000000 -1.200755 -0.678366 -1.873201 3.991210 -1.751236 -1.623801 -1.563473 -0.585677 -2.388169 -36.152949 0.880931 1.702367 -32.120067 3.487821 6.715152 0.271924 -6.294718 6.150853 -1.719108 0.056759 -0.273576 9.006632 6.754663 1.390333 68.370346 3.703472 -5.882983 0.586741 29.860224 -0.501194 0.000000 0.000000 -0.000000 -13.865097 12.145904 -5.125594 -0.045652 4.170322 21.245867 0.000000 0.000000 0.000000 -13.514356 -0.724372 -13.608621 1.439645 -4.618667 13.253215 
3.983794 0.050163 -0.107063 1.883555 22.307661 -4.861331 -0.000000 0.000000 -0.000000 -7.418718 0.496768 -0.423644 -1.162945 0.378277 -1.395265 0.000000 0.000000 0.000000 -1.345236 -0.619062 -1.995069 4.222596 -1.598612 -1.938710 -1.659038 -0.498793 -2.508993 -35.818000 1.003742 1.798159 -32.668450 2.960661 6.885767 0.250014 -6.856261 6.081260 -1.903703 0.154714 -0.331225 9.076223 6.685619 1.368460 68.006663 3.886321 -5.886479 0.592281 29.637088 -0.499856 0.000000 0.000000 -0.000000 -13.693475 12.103398 -5.381620 0.079915 4.299897 21.332386 0.000000 0.000000 0.000000 -13.252127 -1.545827 -13.332784 1.014709 -4.845315 12.531410 
4.045581 0.091667 -0.145959 1.728233 21.671117 -4.798966 -0.000000 0.000000 -0.000000 -7.624350 0.562308 -0.273999 -1.199246 0.404355 -1.480661 0.000000 0.000000 0.000000 -1.449663 -0.579926 -2.092519 4.485374 -1.515436 -2.338424 -1.729634 -0.451346 -2.621777 -35.412823 1.065230 1.957817 -33.198858 2.335606 7.275230 0.249987 -7.317793 6.062230 -2.038597 0.220036 -0.393856 9.223656 6.572181 1.343592 67.435380 3.975915 -6.350313 0.584142 29.747279 -0.505420 0.000000 0.000000 -0.000000 -13.515171 12.081931 -5.547183 0.157555 4.436776 21.302432 0.000000 0.000000 0.000000 -12.988023 -2.124409 -13.201230 0.634520 -5.104823 11.978718 
4.054295 0.132608 -0.192390 1.608184 20.869289 -4.751949 -0.000000 0.000000 -0.000000 -7.671406 0.573588 -0.168833 -1.209310 0.405453 -1.585189 0.000000 0.000000 0.000000 -1.491550 -0.568130 -2.177092 4.708499 -1.462969 -2.622982 -1.762311 -0.445971 -2.722372 -34.951316 1.076984 2.171255 -33.739302 1.770289 7.841736 0.242841 -7.655640 6.046196 -2.096957 0.244537 -0.458663 9.453761 6.428992 1.317585 66.771784 3.849310 -6.985160 0.568137 30.088549 -0.515275 0.000000 0.000000 -0.000000 -13.324497 12.103963 -5.647359 0.182708 4.577576 21.217704 0.000000 0.000000 0.000000 -12.732914 -2.399983 -13.214728 0.324277 -5.361498 11.611663 
